<mxfile host="Electron" modified="2023-12-14T13:15:26.068Z" agent="Mozilla/5.0 (Windows NT 10.0; Win64; x64) AppleWebKit/537.36 (KHTML, like Gecko) draw.io/21.6.8 Chrome/114.0.5735.289 Electron/25.5.0 Safari/537.36" etag="MtLvr4luP_XlQkaU2nE6" version="21.6.8" type="device">
  <diagram name="Страница — 1" id="yLBr2UCwu0fqnjg9b1X4">
    <mxGraphModel dx="2058" dy="1180" grid="1" gridSize="10" guides="1" tooltips="1" connect="1" arrows="1" fold="1" page="1" pageScale="1" pageWidth="827" pageHeight="1169" math="0" shadow="0">
      <root>
        <mxCell id="0" />
        <mxCell id="1" parent="0" />
        <mxCell id="vky-kIIdX42FLGZlT-yL-1" value="&lt;font style=&quot;font-size: 20px;&quot;&gt;Human Friends&lt;/font&gt;" style="rounded=0;whiteSpace=wrap;html=1;" vertex="1" parent="1">
          <mxGeometry x="340" y="40" width="190" height="60" as="geometry" />
        </mxCell>
        <mxCell id="vky-kIIdX42FLGZlT-yL-2" value="&lt;font style=&quot;font-size: 20px;&quot;&gt;Pets&lt;/font&gt;" style="rounded=0;whiteSpace=wrap;html=1;" vertex="1" parent="1">
          <mxGeometry x="100" y="160" width="180" height="60" as="geometry" />
        </mxCell>
        <mxCell id="vky-kIIdX42FLGZlT-yL-3" value="&lt;font style=&quot;font-size: 20px;&quot;&gt;Pack Animals&lt;/font&gt;" style="rounded=0;whiteSpace=wrap;html=1;" vertex="1" parent="1">
          <mxGeometry x="560" y="160" width="180" height="60" as="geometry" />
        </mxCell>
        <mxCell id="vky-kIIdX42FLGZlT-yL-4" value="&lt;font style=&quot;font-size: 20px;&quot;&gt;Cats&lt;/font&gt;" style="rounded=0;whiteSpace=wrap;html=1;" vertex="1" parent="1">
          <mxGeometry x="40" y="280" width="70" height="60" as="geometry" />
        </mxCell>
        <mxCell id="vky-kIIdX42FLGZlT-yL-6" value="&lt;font style=&quot;font-size: 19px;&quot;&gt;Hamsters&lt;/font&gt;" style="rounded=0;whiteSpace=wrap;html=1;" vertex="1" parent="1">
          <mxGeometry x="230" y="280" width="90" height="60" as="geometry" />
        </mxCell>
        <mxCell id="vky-kIIdX42FLGZlT-yL-7" value="&lt;font style=&quot;font-size: 20px;&quot;&gt;Dogs&lt;/font&gt;" style="rounded=0;whiteSpace=wrap;html=1;" vertex="1" parent="1">
          <mxGeometry x="140" y="280" width="70" height="60" as="geometry" />
        </mxCell>
        <mxCell id="vky-kIIdX42FLGZlT-yL-8" value="&lt;font style=&quot;font-size: 19px;&quot;&gt;Horses&lt;/font&gt;" style="rounded=0;whiteSpace=wrap;html=1;" vertex="1" parent="1">
          <mxGeometry x="520" y="280" width="70" height="60" as="geometry" />
        </mxCell>
        <mxCell id="vky-kIIdX42FLGZlT-yL-9" value="&lt;font style=&quot;font-size: 19px;&quot;&gt;Camels&lt;/font&gt;" style="rounded=0;whiteSpace=wrap;html=1;" vertex="1" parent="1">
          <mxGeometry x="620" y="280" width="70" height="60" as="geometry" />
        </mxCell>
        <mxCell id="vky-kIIdX42FLGZlT-yL-10" value="&lt;font style=&quot;font-size: 19px;&quot;&gt;Donkeys&lt;/font&gt;" style="rounded=0;whiteSpace=wrap;html=1;" vertex="1" parent="1">
          <mxGeometry x="710" y="280" width="90" height="60" as="geometry" />
        </mxCell>
        <mxCell id="vky-kIIdX42FLGZlT-yL-11" value="" style="endArrow=classic;html=1;rounded=0;exitX=0.543;exitY=1.017;exitDx=0;exitDy=0;exitPerimeter=0;entryX=0.375;entryY=0;entryDx=0;entryDy=0;entryPerimeter=0;" edge="1" parent="1" source="vky-kIIdX42FLGZlT-yL-1" target="vky-kIIdX42FLGZlT-yL-2">
          <mxGeometry width="50" height="50" relative="1" as="geometry">
            <mxPoint x="390" y="410" as="sourcePoint" />
            <mxPoint x="440" y="360" as="targetPoint" />
          </mxGeometry>
        </mxCell>
        <mxCell id="vky-kIIdX42FLGZlT-yL-12" value="" style="endArrow=classic;html=1;rounded=0;exitX=0.536;exitY=1;exitDx=0;exitDy=0;exitPerimeter=0;entryX=0.654;entryY=0.017;entryDx=0;entryDy=0;entryPerimeter=0;" edge="1" parent="1" source="vky-kIIdX42FLGZlT-yL-1" target="vky-kIIdX42FLGZlT-yL-3">
          <mxGeometry width="50" height="50" relative="1" as="geometry">
            <mxPoint x="390" y="410" as="sourcePoint" />
            <mxPoint x="440" y="360" as="targetPoint" />
          </mxGeometry>
        </mxCell>
        <mxCell id="vky-kIIdX42FLGZlT-yL-13" value="" style="endArrow=classic;html=1;rounded=0;entryX=0.6;entryY=0;entryDx=0;entryDy=0;entryPerimeter=0;" edge="1" parent="1" source="vky-kIIdX42FLGZlT-yL-2" target="vky-kIIdX42FLGZlT-yL-4">
          <mxGeometry width="50" height="50" relative="1" as="geometry">
            <mxPoint x="130" y="530" as="sourcePoint" />
            <mxPoint x="180" y="480" as="targetPoint" />
          </mxGeometry>
        </mxCell>
        <mxCell id="vky-kIIdX42FLGZlT-yL-14" value="" style="endArrow=classic;html=1;rounded=0;exitX=0.5;exitY=1;exitDx=0;exitDy=0;entryX=0.5;entryY=0;entryDx=0;entryDy=0;" edge="1" parent="1" source="vky-kIIdX42FLGZlT-yL-2" target="vky-kIIdX42FLGZlT-yL-7">
          <mxGeometry width="50" height="50" relative="1" as="geometry">
            <mxPoint x="240" y="490" as="sourcePoint" />
            <mxPoint x="290" y="440" as="targetPoint" />
          </mxGeometry>
        </mxCell>
        <mxCell id="vky-kIIdX42FLGZlT-yL-15" value="" style="endArrow=classic;html=1;rounded=0;entryX=0.5;entryY=0;entryDx=0;entryDy=0;" edge="1" parent="1" source="vky-kIIdX42FLGZlT-yL-2" target="vky-kIIdX42FLGZlT-yL-6">
          <mxGeometry width="50" height="50" relative="1" as="geometry">
            <mxPoint x="390" y="410" as="sourcePoint" />
            <mxPoint x="440" y="360" as="targetPoint" />
          </mxGeometry>
        </mxCell>
        <mxCell id="vky-kIIdX42FLGZlT-yL-16" value="" style="endArrow=classic;html=1;rounded=0;exitX=0.5;exitY=1;exitDx=0;exitDy=0;" edge="1" parent="1" source="vky-kIIdX42FLGZlT-yL-3">
          <mxGeometry width="50" height="50" relative="1" as="geometry">
            <mxPoint x="390" y="410" as="sourcePoint" />
            <mxPoint x="560" y="280" as="targetPoint" />
          </mxGeometry>
        </mxCell>
        <mxCell id="vky-kIIdX42FLGZlT-yL-17" value="" style="endArrow=classic;html=1;rounded=0;entryX=0.5;entryY=0;entryDx=0;entryDy=0;exitX=0.607;exitY=1.017;exitDx=0;exitDy=0;exitPerimeter=0;" edge="1" parent="1" source="vky-kIIdX42FLGZlT-yL-3" target="vky-kIIdX42FLGZlT-yL-9">
          <mxGeometry width="50" height="50" relative="1" as="geometry">
            <mxPoint x="700" y="210" as="sourcePoint" />
            <mxPoint x="440" y="360" as="targetPoint" />
          </mxGeometry>
        </mxCell>
        <mxCell id="vky-kIIdX42FLGZlT-yL-18" value="" style="endArrow=classic;html=1;rounded=0;entryX=0.75;entryY=0;entryDx=0;entryDy=0;exitX=0.7;exitY=1;exitDx=0;exitDy=0;exitPerimeter=0;" edge="1" parent="1" source="vky-kIIdX42FLGZlT-yL-3" target="vky-kIIdX42FLGZlT-yL-10">
          <mxGeometry width="50" height="50" relative="1" as="geometry">
            <mxPoint x="710" y="210" as="sourcePoint" />
            <mxPoint x="440" y="360" as="targetPoint" />
          </mxGeometry>
        </mxCell>
      </root>
    </mxGraphModel>
  </diagram>
</mxfile>
